<?xml version="1.0" encoding="UTF-8"?>
<svg width="344px" height="344px" viewBox="0 0 344 344" version="1.1" xmlns="http://www.w3.org/2000/svg" xmlns:xlink="http://www.w3.org/1999/xlink">
    <!-- Generator: Sketch 60.1 (88133) - https://sketch.com -->
    <title>Group@3x</title>
    <desc>Created with Sketch.</desc>
    <g id="Page-1" stroke="none" stroke-width="1" fill="none" fill-rule="evenodd">
        <g id="Startseite---Voicebirds" transform="translate(-246.000000, -230.000000)">
            <g id="header" transform="translate(-348.000000, -405.000000)">
                <g id="bg" transform="translate(558.000000, 547.000000) scale(-1, 1) translate(-558.000000, -547.000000) ">
                    <g id="Group-2" transform="translate(0.270391, 0.652486)">
                        <g id="Group" transform="translate(349.729609, 806.347514) scale(-1, 1) translate(-349.729609, -806.347514) translate(177.729609, 634.347514)">
                            <path d="M320.383524,163.5912 C320.383524,164.6112 320.371524,165.6192 320.353524,166.6332 C319.927524,188.0052 315.091524,208.2912 306.691524,226.6212 C298.963524,243.5052 288.229524,258.7272 275.161524,271.5852 C266.155524,280.4592 256.051524,288.2052 245.065524,294.6132 C244.561524,294.9192 244.057524,295.2072 243.541524,295.4952 C221.497524,308.0232 195.985524,315.1752 168.799524,315.1752 C166.867524,315.1752 164.935524,315.1392 163.021524,315.0672 C81.9675239,312.0312 17.2035239,245.3772 17.2035239,163.5912 C17.2035239,79.8792 85.0695239,12.0096 168.799524,12.0096 C252.517524,12.0096 320.383524,79.8792 320.383524,163.5912" id="Fill-95" fill="#FB5895"></path>
                            <path d="M302.269524,103.2432 C302.269524,103.2432 302.809524,92.8752 300.541524,90.7692 C298.273524,88.6692 296.503524,83.8632 294.841524,81.6012 C293.179524,79.3392 286.411524,74.7252 285.607524,71.8452 C285.277524,70.6692 286.165524,62.6862 285.235524,60.3636 C284.299524,58.041 281.821524,53.5566 283.891524,52.836 C285.961524,52.1166 289.303524,55.5462 289.303524,55.5462 C289.303524,55.5462 288.583524,53.3808 290.197524,52.1964 C293.341524,49.8942 295.543524,50.982 295.543524,50.982 C295.543524,50.982 296.275524,48.3132 297.835524,47.6796 C301.267524,46.281 303.367524,47.3934 303.367524,47.3934 C303.367524,47.3934 304.633524,45.735 307.129524,45.3132 C310.327524,44.7744 312.307524,47.2788 312.307524,47.2788 C312.307524,47.2788 316.147524,45.7008 317.755524,47.3652 C319.363524,49.0314 319.633524,51.0798 320.515524,52.6974 C321.397524,54.3144 324.475524,70.6332 321.847524,82.7292 C319.225524,94.8252 321.973524,105.1812 321.973524,105.1812 L302.269524,103.2432" id="Fill-96" fill="#EEA987"></path>
                            <polyline id="Fill-97" fill="#404040" points="334.759524 53.9028 276.211524 60.2298 277.807524 71.6172 336.361524 62.5548 334.759524 53.9028"></polyline>
                            <polyline id="Fill-98" fill="#404040" points="334.933524 54.8376 342.991524 54.9666 343.969524 59.9712 336.211524 61.7376 334.933524 54.8376"></polyline>
                            <path d="M255.097524,72.5052 C258.211524,79.0812 266.065524,81.8892 272.641524,78.7692 C279.217524,75.6612 282.019524,67.8072 278.905524,61.2312 C275.791524,54.657 267.937524,51.8514 261.361524,54.9654 C254.791524,58.0794 251.983524,65.9352 255.097524,72.5052" id="Fill-99" fill="#363636"></path>
                            <path d="M289.075524,57.0996 C289.075524,57.0996 291.955524,71.0112 296.275524,73.2732 C300.595524,75.5352 299.839524,70.4592 299.839524,70.4592 C299.839524,70.4592 300.499524,75.4932 304.627524,75.4092 C308.749524,75.3252 307.543524,69.4272 307.543524,69.4272 C307.543524,69.4272 309.085524,73.1112 313.075524,71.5452 C317.059524,69.9732 314.929524,65.2992 314.929524,65.2992 C314.929524,65.2992 320.029524,69.3132 321.541524,64.2492 C324.091524,55.6986 318.295524,47.2818 318.295524,47.2818 C318.295524,47.2818 316.081524,45.111 312.355524,46.8852 C312.355524,46.8852 308.329524,42.0792 303.295524,47.0556 C303.295524,47.0556 296.359524,44.7672 295.405524,50.5638 C295.405524,50.5638 287.395524,49.0638 289.075524,57.0996" id="Fill-100" fill="#DB9C7C"></path>
                            <path d="M201.601524,17.7498 C201.601524,17.7498 216.715524,36.0114 218.287524,53.0136 C219.865524,70.0152 228.835524,106.8552 194.833524,101.9712 C160.825524,97.0932 155.005524,68.4432 150.277524,61.83 C145.555524,55.2174 137.845524,29.0838 156.733524,19.482 C175.627524,9.8784 195.619524,11.2956 201.601524,17.7498" id="Fill-101" fill="#EEA987"></path>
                            <path d="M339.901524,213.8232 C339.427524,217.8432 325.501524,233.1852 317.701524,231.5352 C315.583524,231.0792 311.503524,229.1712 306.691524,226.6212 C293.815524,219.7872 275.671524,208.3932 275.671524,208.3932 C275.671524,208.3932 273.073524,239.3352 273.307524,257.5152 C273.349524,260.6952 274.039524,265.6152 275.161524,271.5852 C247.795524,298.5492 210.253524,315.1752 168.799524,315.1752 C166.867524,315.1752 164.935524,315.1392 163.021524,315.0672 C163.915524,289.6572 164.923524,259.6572 164.923524,253.7352 C164.923524,243.1092 148.147524,205.0872 148.147524,205.0872 C148.147524,205.0872 120.859524,263.5992 118.735524,266.6772 C116.605524,269.7492 110.605524,277.3512 110.605524,277.3512 C110.605524,277.3512 95.9655239,256.8072 84.3915239,253.4952 L89.3595239,245.8632 C89.3595239,245.8632 120.991524,169.4292 124.777524,162.3492 C128.557524,155.2692 164.449524,127.1652 165.871524,126.9312 C167.275524,126.6972 218.635524,121.0212 218.635524,121.0212 C218.635524,121.0212 256.543524,131.4132 264.571524,138.4932 C268.963524,142.3692 278.851524,152.7312 286.915524,161.3232 C293.611524,168.4632 299.047524,174.3852 299.047524,174.3852 L301.849524,162.5772 L320.353524,166.6332 L331.639524,169.1112 C331.639524,169.1112 340.375524,209.8152 339.901524,213.8232" id="Fill-102" fill="#5785CF"></path>
                            <path d="M163.189524,77.8692 C168.865524,90.7632 168.859524,126.5652 168.859524,126.5652 L212.317524,147.4692 L216.547524,121.2552 C214.513524,119.0952 212.917524,115.3572 211.693524,111.2532 C210.667524,107.8272 209.899524,104.1432 209.341524,100.9032 C208.441524,95.7012 208.087524,91.6512 208.087524,91.6512 C208.087524,91.6512 157.519524,64.9812 163.189524,77.8692" id="Fill-103" fill="#EEA987"></path>
                            <polyline id="Fill-104" fill="#466AA6" points="212.539524 136.0572 224.587524 152.2692 221.983524 121.9692 213.487524 116.2572 212.539524 136.0572"></polyline>
                            <polyline id="Fill-105" fill="#466AA6" points="200.017524 139.9992 201.115524 159.9672 162.751524 129.0252 168.781524 121.0212 200.017524 139.9992"></polyline>
                            <polyline id="Fill-106" fill="#5785CF" points="200.017524 139.9992 212.317524 147.4692 212.539524 136.0572 218.899524 144.6132 211.675524 155.1852 200.731524 152.9832 200.017524 139.9992"></polyline>
                            <path d="M110.605524,277.3512 L49.5255239,320.1552 C49.5255239,320.1552 36.5355239,311.5692 38.3055239,307.6752 L84.3975239,253.5012 C84.3975239,253.5012 98.0595239,255.6612 110.605524,277.3512" id="Fill-107" fill="#EEA987"></path>
                            <path d="M302.455524,165.4812 L302.455524,93.4392 C302.455524,93.4392 308.731524,89.2392 320.539524,93.4392 L330.349524,172.2072 C330.349524,172.2072 314.119524,182.5452 302.455524,165.4812" id="Fill-108" fill="#EEA987"></path>
                            <path d="M112.147524,279.6132 C112.147524,279.6132 89.7075239,259.6392 84.9855239,257.2752 C80.2635239,254.9172 79.4355239,254.3232 81.3255239,251.4912 C83.2155239,248.6592 86.5215239,247.8312 87.7035239,243.9372 C88.8855239,240.0372 97.2675239,245.7072 101.515524,249.9552 C105.769524,254.2092 118.519524,267.1932 119.581524,267.1932 C120.643524,267.1932 118.633524,271.5612 116.155524,274.2792 C113.677524,276.9972 112.147524,279.6132 112.147524,279.6132" id="Fill-109" fill="#466AA6"></path>
                            <path d="M300.643524,159.3252 C300.643524,159.3252 332.461524,165.8532 334.111524,167.5932 C335.761524,169.3392 334.111524,171.1632 334.855524,174.1212 C335.599524,177.0852 335.683524,179.6952 335.683524,179.6952 C335.683524,179.6952 299.737524,171.7752 298.333524,170.3832 C296.923524,168.9912 299.653524,166.2012 299.569524,163.5912 C299.485524,160.9812 300.643524,159.3252 300.643524,159.3252" id="Fill-110" fill="#466AA6"></path>
                            <path d="M54.7935239,291.3672 C54.7935239,291.3672 44.6775239,300.4032 43.1235239,301.0632 C41.5755239,301.7172 33.5475239,300.8172 31.3335239,299.5392 C29.1195239,298.2612 17.9595239,293.8332 17.1975239,295.0152 C16.4415239,296.2032 21.1935239,302.5152 24.9975239,303.8832 C28.4535239,305.1192 29.3055239,306.5412 29.0835239,307.4292 C28.8555239,308.3232 27.3375239,312.3372 25.8435239,313.1052 C17.2275239,317.5812 2.39552392,322.0152 1.43552392,323.3712 C0.51752392,324.6732 2.10152392,327.2892 10.0815239,324.4452 C18.0615239,321.6012 24.6375239,319.2192 23.9175239,320.1432 C23.1915239,321.0672 10.5195239,328.0932 10.0815239,328.3272 C9.64952392,328.5672 -0.64047608,334.6512 0.0315239205,337.0152 C0.70352392,339.3792 3.02552392,339.5412 3.02552392,339.5412 C3.02552392,339.5412 2.97152392,341.8392 4.50152392,342.7932 C6.03152392,343.7472 10.4055239,342.2412 13.4535239,340.8252 C13.4535239,340.8252 12.3555239,343.3452 14.8275239,343.9092 C17.2995239,344.4732 33.6615239,337.6632 35.3475239,337.3812 C37.0335239,337.0932 50.2815239,328.5432 54.3735239,321.4332 C58.4715239,314.3292 68.4375239,303.7392 68.4375239,303.7392 L54.7935239,291.3672" id="Fill-111" fill="#EEA987"></path>
                            <path d="M163.189524,84.6432 C163.189524,84.6432 139.537524,63.2832 135.877524,44.1576 C132.217524,25.0308 142.957524,21.9606 142.957524,21.9606 C142.957524,21.9606 139.183524,5.9034 157.957524,2.2434 C176.725524,-1.4172 194.317524,8.1468 200.815524,4.6044 C207.307524,1.0626 207.661524,5.68434189e-14 207.661524,5.68434189e-14 L211.693524,33.1758 C211.693524,33.1758 206.365524,16.6482 184.993524,25.2672 C168.427524,31.9482 170.821524,40.7184 172.711524,50.4672 C174.601524,60.216 180.271524,67.5372 180.271524,67.5372 L167.161524,67.0632 C167.161524,67.0632 158.281524,70.9992 163.189524,84.6432" id="Fill-112" fill="#323557"></path>
                            <path d="M169.129524,60.531 C166.831524,56.9472 159.607524,50.4558 157.009524,56.1228 C154.411524,61.7904 162.049524,74.7012 167.869524,74.3832 C173.695524,74.0712 171.199524,63.7572 169.129524,60.531" id="Fill-113" fill="#EEA987"></path>
                            <polyline id="Fill-114" fill="#416299" points="212.317524 147.4692 200.425524 147.4692 200.017524 139.9992 212.317524 147.4692"></polyline>
                            <polyline id="Fill-115" fill="#416299" points="212.317524 147.4692 215.191524 139.6272 212.539524 136.0572 212.317524 147.4692"></polyline>
                            <path d="M286.909524,161.3232 L294.955524,201.4692 L299.047524,174.3912 C299.047524,174.3912 293.611524,168.4632 286.909524,161.3232" id="Fill-116" fill="#416299"></path>
                            <path d="M171.481524,92.6892 C171.667524,92.9472 183.745524,109.5252 211.693524,111.2532 C210.667524,107.8272 209.899524,104.1432 209.341524,100.9032 C207.877524,101.4972 192.811524,107.0352 171.481524,92.6892" id="Fill-117" fill="#A87860"></path>
                            <path d="M245.065524,294.6132 C244.561524,294.9192 244.057524,295.2072 243.541524,295.4952 C239.359524,270.2532 235.471524,242.4672 235.321524,223.5972 C235.135524,201.9852 228.709524,182.5692 223.357524,170.0892 C217.723524,156.9732 212.695524,148.1232 212.335524,147.4992 C212.791524,148.0752 219.163524,156.1512 224.857524,169.3992 C230.281524,182.0232 236.791524,201.6732 236.977524,223.5852 C237.127524,242.2032 240.943524,269.5932 245.065524,294.6132" id="Fill-118" fill="#466AA6"></path>
                        </g>
                    </g>
                </g>
            </g>
        </g>
    </g>
</svg>