<?xml version="1.0" encoding="UTF-8"?>
<svg width="183px" height="36px" viewBox="0 0 183 36" version="1.1" xmlns="http://www.w3.org/2000/svg" xmlns:xlink="http://www.w3.org/1999/xlink">
    <!-- Generator: Sketch 60.1 (88133) - https://sketch.com -->
    <title>ProvenExpert@3x</title>
    <desc>Created with Sketch.</desc>
    <defs>
        <polygon id="path-1" points="4.63289286 4.792 182.797027 4.792 182.797027 35.904 4.63289286 35.904"></polygon>
        <polygon id="path-3" points="134.167742 29.3033333 158.674194 29.3033333 158.674194 35.9066667 134.167742 35.9066667"></polygon>
        <polygon id="path-5" points="0.0736 0.1185 15.8208 0.1185 15.8208 5.91 0.0736 5.91"></polygon>
    </defs>
    <g id="ProvenExpert" stroke="none" stroke-width="1" fill="none" fill-rule="evenodd">
        <g id="Proven-Expert">
            <rect id="Rectangle" x="0" y="0" width="183" height="36"></rect>
            <path d="M25,12.4968047 C25,19.4018405 19.4046782,25 12.5007989,25 C5.59691954,25 0,19.4018405 0,12.4968047 C0,5.59656186 5.59691954,0 12.5007989,0 C19.4046782,0 25,5.59656186 25,12.4968047" id="Fill-1" fill="#FFFFFF"></path>
            <mask id="mask-2" fill="white">
                <use xlink:href="#path-1"></use>
            </mask>
            <g id="Clip-3"></g>
            <polyline id="Fill-2" fill="#111426" mask="url(#mask-2)" points="17.5081071 6.3056 10.3784732 13.44 7.50808036 10.5616 4.63289286 13.44 10.3784732 19.1888 20.3800982 9.1808 17.5081071 6.3056"></polyline>
            <path d="M182.771455,21.4112 L181.63033,21.7024 C181.168446,21.7968 180.564321,21.8944 179.881884,21.8944 C179.033232,21.8944 178.427509,21.7488 177.967223,21.2896 C177.529312,20.8528 177.407848,20.2928 177.407848,19.2464 L177.407848,10.3584 L175.253455,10.3584 L175.253455,8.8032 L177.407848,8.8032 L177.407848,5.5456 L179.226616,5.5456 L179.226616,8.8032 L182.798625,8.8032 L182.798625,10.3584 L179.226616,10.3584 L179.226616,18.8368 C179.226616,19.5152 179.301732,19.8048 179.495116,19.9776 C179.642152,20.1472 179.909054,20.2448 180.634643,20.2448 L182.771455,20.2448 L182.771455,21.4112 Z M168.238893,21.7968 L168.238893,8.8032 L170.033687,8.8032 L170.033687,10.9184 C171.611125,9.2624 172.194473,8.7776 173.282857,8.7776 L174.772393,8.7776 L174.772393,10.6256 L173.115045,10.6256 C172.119357,10.6256 171.441714,10.7696 170.033687,11.7408 L170.033687,21.7968 L168.238893,21.7968 Z M156.808464,14.4368 L163.990839,14.4368 C163.965268,11.7664 163.771884,11.1104 163.385116,10.7456 C163.116616,10.4768 162.776196,10.3584 161.830054,10.3584 L158.943679,10.3584 C158.021509,10.3584 157.684286,10.456 157.364643,10.7696 C157.001848,11.1328 156.832437,11.7184 156.808464,14.4368 Z M156.808464,15.872 C156.832437,18.8368 157.025821,19.4928 157.391812,19.856 C157.684286,20.1472 158.021509,20.2192 158.943679,20.2192 L162.170473,20.2192 C162.972777,20.2192 163.31,20.1248 163.5785,19.856 C163.869375,19.5616 163.990839,19.1504 164.016411,17.816 L165.760062,17.816 C165.713714,19.8048 165.493161,20.488 164.863464,21.1168 C164.380804,21.6048 163.747911,21.7968 162.510893,21.7968 L158.774268,21.7968 C157.438161,21.7968 156.687,21.6288 156.129223,21.0704 C155.306143,20.2448 155.01367,19.2016 155.01367,15.2896 C155.01367,11.4016 155.306143,10.3584 156.129223,9.5296 C156.687,8.9728 157.438161,8.8032 158.774268,8.8032 L162.026634,8.8032 C163.335571,8.8032 164.137875,8.9936 164.646107,9.5056 C165.470786,10.3584 165.760062,11.4016 165.760062,15.168 L165.760062,15.5792 C165.760062,15.7728 165.686545,15.872 165.470786,15.872 L156.808464,15.872 Z M143.973205,11.5488 L143.973205,19.0304 C145.306116,19.8784 146.084446,20.2192 147.2,20.2192 L148.798214,20.2192 C149.843446,20.2192 150.255786,20.0496 150.548259,19.7616 C151.03092,19.2736 151.15558,18.5216 151.15558,15.2896 C151.15558,12.0832 151.03092,11.304 150.548259,10.8432 C150.255786,10.5264 149.843446,10.384 148.798214,10.384 L147.152054,10.384 C146.033304,10.384 145.25817,10.7216 143.973205,11.5488 Z M143.973205,8.8032 L143.973205,10.5264 C145.692884,9.1184 146.301804,8.7776 147.658687,8.7776 L149.164205,8.7776 C150.642554,8.7776 151.371339,9.0208 151.927518,9.5776 C152.681875,10.3584 152.947179,11.3776 152.947179,15.2896 C152.947179,19.2272 152.681875,20.2448 151.927518,21.024 C151.371339,21.584 150.642554,21.8256 149.164205,21.8256 L147.658687,21.8256 C146.325777,21.8256 145.667312,21.4848 143.973205,20.0736 L143.973205,25.4432 L142.175214,25.4432 L142.175214,8.8032 L143.973205,8.8032 Z M129.14817,21.7968 L133.733446,15.1904 L129.223286,8.8032 L131.312152,8.8032 L134.850598,13.88 L135.067955,13.88 L138.537679,8.8032 L140.529054,8.8032 L136.015696,15.2416 L140.626545,21.7968 L138.537679,21.7968 L134.874571,16.5792 L134.679589,16.5792 L131.112375,21.7968 L129.14817,21.7968 Z M128.349062,21.7968 L117.143982,21.7968 L117.143982,4.792 L128.424179,4.792 L128.424179,6.4464 L119.057045,6.4464 L119.057045,12.1552 L127.088071,12.1552 L127.088071,13.7824 L119.057045,13.7824 L119.057045,20.1472 L128.349062,20.1472 L128.349062,21.7968 Z M97.7608393,21.7968 L97.7608393,8.4384 L101.471893,8.4384 L101.471893,10.2112 C103.19317,8.656 103.726973,8.4112 104.963991,8.4112 L106.589375,8.4112 C107.732098,8.4112 108.459286,8.656 108.967518,9.1664 C109.526893,9.7008 109.74425,10.4064 109.74425,12.3728 L109.74425,21.7968 L106.033196,21.7968 L106.033196,12.8112 C106.033196,12.2528 105.935705,11.936 105.742321,11.7184 C105.521768,11.4976 105.282036,11.4272 104.623571,11.4272 L103.579937,11.4272 C102.950241,11.4272 102.366893,11.5712 101.471893,11.9872 L101.471893,21.7968 L97.7608393,21.7968 Z M87.4028125,13.88 L92.3285089,13.88 C92.3285089,12.0832 92.2054464,11.5952 92.0344375,11.4016 C91.8905982,11.256 91.6700446,11.184 90.9188839,11.184 L88.9051339,11.184 C88.2754375,11.184 87.8886696,11.2336 87.7160625,11.4272 C87.5466518,11.5952 87.4251875,12.008 87.4028125,13.88 Z M87.4028125,15.9712 C87.4251875,18.0816 87.5722232,18.6432 87.7160625,18.8096 C87.8886696,19.0064 88.2754375,19.0544 88.9051339,19.0544 L91.1618125,19.0544 C91.9145714,19.0544 92.1095536,18.9808 92.2549911,18.8096 C92.3748571,18.664 92.426,18.3024 92.448375,17.3552 L95.8701518,17.3552 C95.8445804,19.3472 95.6288214,20.368 94.9735536,21.024 C94.5612143,21.4336 94.0258125,21.7968 92.5938125,21.7968 L87.6441429,21.7968 C86.2840625,21.7968 85.5808482,21.584 84.9990982,20.9744 C84.1264732,20.1024 83.7876518,19.0544 83.7876518,15.1184 C83.7876518,11.184 84.1264732,10.1392 84.9990982,9.24 C85.5584732,8.656 86.2840625,8.4384 87.6441429,8.4384 L92.1590982,8.4384 C93.5159821,8.4384 94.2463661,8.656 94.8025446,9.24 C95.6767679,10.1184 95.8701518,11.1584 95.8701518,14.9984 L95.8701518,15.4352 C95.8701518,15.824 95.7694643,15.9712 95.3331518,15.9712 L87.4028125,15.9712 Z M79.1288571,20.9744 C78.8859286,21.6768 78.59825,21.848 77.8678661,21.848 L75.4417768,21.848 C74.7385625,21.848 74.4205179,21.6768 74.1807857,20.9744 L69.9599018,8.4384 L73.9138839,8.4384 L76.6324464,17.936 L76.8961518,17.936 L79.5683661,8.4384 L83.3529375,8.4384 L79.1288571,20.9744 Z M61.2752054,18.6144 C61.4206429,18.8096 61.615625,18.8576 62.2469196,18.8576 L64.5515446,18.8576 C65.1812411,18.8576 65.3762232,18.7856 65.5216607,18.6144 C65.7166429,18.4224 65.8365089,17.984 65.8365089,15.1184 C65.8365089,12.2528 65.7166429,11.8144 65.5216607,11.5952 C65.3762232,11.4272 65.1812411,11.3776 64.5515446,11.3776 L62.2469196,11.3776 C61.615625,11.3776 61.4206429,11.4272 61.2752054,11.5952 C61.0818214,11.8144 60.9603571,12.2528 60.9603571,15.1184 C60.9603571,17.984 61.0818214,18.4224 61.2752054,18.6144 Z M58.4847232,20.9744 C57.6120982,20.1024 57.274875,18.8848 57.274875,15.1184 C57.274875,11.328 57.6120982,10.1392 58.4847232,9.24 C59.0440982,8.656 59.7744821,8.4384 61.1313661,8.4384 L65.6670982,8.4384 C67.0271786,8.4384 67.7303929,8.656 68.3121429,9.24 C69.1847679,10.1392 69.5251875,11.328 69.5251875,15.1184 C69.5251875,18.9104 69.1847679,20.1024 68.3121429,20.9744 C67.7303929,21.584 67.0271786,21.7968 65.6670982,21.7968 L61.1313661,21.7968 C59.7744821,21.7968 59.0696696,21.584 58.4847232,20.9744 Z M48.1522679,21.7968 L48.1522679,8.4384 L51.8633214,8.4384 L51.8633214,10.4768 C53.2457768,9.0464 53.9505893,8.4112 55.0181964,8.4112 L56.4485982,8.4112 L56.4485982,12.0832 L54.7257232,12.0832 C53.7060625,12.0832 52.9309286,12.1776 51.8633214,12.6176 L51.8633214,21.7968 L48.1522679,21.7968 Z M40.9219464,12.9088 C41.8201429,12.9088 42.0870446,12.8576 42.2580536,12.7136 C42.5233571,12.4672 42.7439107,12.0336 42.7439107,10.384 C42.7439107,8.728 42.5009821,8.3184 42.2580536,8.096 C42.0870446,7.952 41.8201429,7.8768 40.9219464,7.8768 L37.0894286,7.8768 L37.0894286,12.9088 L40.9219464,12.9088 Z M45.3633839,15.3136 C44.7816339,15.824 43.8578661,16.0176 42.4738125,16.0176 L37.0894286,16.0176 L37.0894286,21.7968 L33.1338482,21.7968 L33.1338482,4.792 L42.4738125,4.792 C43.8578661,4.792 44.7816339,4.9648 45.3633839,5.4768 C46.1401161,6.1776 46.8177589,7.2736 46.8177589,10.4304 C46.8177589,13.5152 46.1177411,14.6336 45.3633839,15.3136 L45.3633839,15.3136 Z" id="Fill-4" fill="#FFFFFF" mask="url(#mask-2)"></path>
            <polygon id="Fill-5" fill="#FFFFFF" mask="url(#mask-2)" points="107.283 35.8944 108.010188 35.8944 108.010188 29.3568 107.283 29.3568"></polygon>
            <path d="M110.61208,31.7856 L110.61208,34.0448 C110.61208,35.0736 110.679205,35.3664 111.29292,35.3664 C111.556625,35.3664 112.131982,35.3104 112.131982,35.3104 L112.179929,35.896 C112.179929,35.896 111.547036,36 111.216205,36 C110.244491,36 109.915259,35.6304 109.915259,34.2704 L109.915259,31.7856 L109.245607,31.7856 L109.245607,31.1712 L109.915259,31.1712 L109.915259,29.7264 L110.61208,29.7264 L110.61208,31.1712 L112.112804,31.1712 L112.112804,31.7856 L110.61208,31.7856" id="Fill-6" fill="#FFFFFF" mask="url(#mask-2)"></path>
            <polyline id="Fill-7" fill="#FFFFFF" mask="url(#mask-2)" points="113.404161 29.2064 114.148929 29.2064 113.546402 31.2752 112.988625 31.2752 113.404161 29.2064"></polyline>
            <path d="M118.366616,31.8608 C118.366616,31.8608 117.318188,31.7104 116.714063,31.7104 C116.129116,31.7104 115.684813,31.8704 115.684813,32.4288 C115.684813,32.872 115.911759,32.9952 116.912241,33.1648 C118.091723,33.3632 118.536027,33.6 118.536027,34.5168 C118.536027,35.6224 117.837607,35.9904 116.704473,35.9904 C116.100348,35.9904 115.043929,35.8112 115.043929,35.8112 L115.080688,35.1968 C115.080688,35.1968 116.157884,35.3568 116.638946,35.3568 C117.412482,35.3568 117.828018,35.1872 117.828018,34.5456 C117.828018,34.0528 117.581893,33.9312 116.554241,33.7696 C115.486634,33.6 114.976804,33.4016 114.976804,32.456 C114.976804,31.4176 115.817464,31.0768 116.677304,31.0768 C117.383714,31.0768 118.384196,31.256 118.384196,31.256 L118.366616,31.8608" id="Fill-8" fill="#FFFFFF" mask="url(#mask-2)"></path>
            <path d="M122.305624,32.8580866 L124.694376,32.8580866 L123.736403,29.5725471 L123.262052,29.5725471 L122.305624,32.8580866 Z M122.733622,29 L124.266378,29 L126,35 L125.306242,35 L124.850433,33.457059 L122.149567,33.457059 L121.692213,35 L121,35 L122.733622,29 L122.733622,29 Z" id="Fill-10" fill="#FFFFFF" mask="url(#mask-2)"></path>
            <polygon id="Fill-11" fill="#FFFFFF" mask="url(#mask-2)" points="128.557 35 129.443 35 129.443 29 128.557 29"></polygon>
            <polygon id="Fill-12" fill="#FFFFFF" mask="url(#mask-2)" points="129.557 35 130.443 35 130.443 29 129.557 29"></polygon>
            <mask id="mask-4" fill="white">
                <use xlink:href="#path-3"></use>
            </mask>
            <g id="Clip-14"></g>
            <path d="M135.529032,33.6293333 L138.024194,33.6293333 L137.024194,30.148 L136.529032,30.148 L135.529032,33.6293333 Z M135.977419,29.5413333 L137.577419,29.5413333 L139.387097,35.8988889 L138.662903,35.8988889 L138.187097,34.264 L135.367742,34.264 L134.890323,35.8988889 L134.167742,35.8988889 L135.977419,29.5413333 L135.977419,29.5413333 Z" id="Fill-13" fill="#FFFFFF" mask="url(#mask-4)"></path>
            <path d="M143.6,33.5282222 C143.6,32.3444444 143.353226,31.8295556 142.514516,31.8295556 C141.858065,31.8295556 141.191935,32.0955556 141.191935,32.0955556 L141.191935,35.3295556 C141.191935,35.3295556 141.809677,35.3746667 142.067742,35.3746667 C143.372581,35.3746667 143.6,34.8146667 143.6,33.5282222 Z M144.324194,33.5282222 C144.324194,35.356 143.809677,35.9906667 142.075806,35.9906667 C141.504839,35.9906667 140.485484,35.8895556 140.485484,35.8895556 L140.485484,29.3033333 L141.191935,29.3033333 L141.191935,31.5355556 C141.191935,31.5355556 141.914516,31.2135556 142.590323,31.2135556 C143.885484,31.2135556 144.324194,31.8746667 144.324194,33.5282222 L144.324194,33.5282222 Z" id="Fill-15" fill="#FFFFFF" mask="url(#mask-4)"></path>
            <path d="M148.816129,33.5468889 C148.816129,32.2697778 148.530645,31.8108889 147.51129,31.8108889 C146.501613,31.8108889 146.206452,32.2697778 146.206452,33.5468889 C146.206452,34.852 146.387097,35.3933333 147.51129,35.3933333 C148.645161,35.3933333 148.816129,34.852 148.816129,33.5468889 Z M149.55,33.5468889 C149.55,35.2191111 149.120968,35.9906667 147.51129,35.9906667 C145.91129,35.9906667 145.472581,35.2191111 145.472581,33.5468889 C145.472581,31.968 146.006452,31.2135556 147.51129,31.2135556 C149.025806,31.2135556 149.55,31.968 149.55,33.5468889 L149.55,33.5468889 Z" id="Fill-16" fill="#FFFFFF" mask="url(#mask-4)"></path>
            <path d="M154.582258,31.3053333 L154.582258,35.8988889 L153.867742,35.8988889 L153.867742,35.5768889 C153.867742,35.5768889 153.154839,35.9906667 152.458065,35.9906667 C151.125806,35.9906667 150.848387,35.3933333 150.848387,33.704 L150.848387,31.3053333 L151.562903,31.3053333 L151.562903,33.6931111 C151.562903,34.9608889 151.677419,35.3746667 152.562903,35.3746667 C153.267742,35.3746667 153.867742,35.0355556 153.867742,35.0355556 L153.867742,31.3053333 L154.582258,31.3053333" id="Fill-17" fill="#FFFFFF" mask="url(#mask-4)"></path>
            <path d="M157.091935,31.9026667 L157.091935,34.0991111 C157.091935,35.0993333 157.159677,35.384 157.779032,35.384 C158.045161,35.384 158.625806,35.3295556 158.625806,35.3295556 L158.674194,35.8988889 C158.674194,35.8988889 158.035484,36 157.701613,36 C156.720968,36 156.387097,35.6406667 156.387097,34.3184444 L156.387097,31.9026667 L155.71129,31.9026667 L155.71129,31.3053333 L156.387097,31.3053333 L156.387097,29.9006667 L157.091935,29.9006667 L157.091935,31.3053333 L158.606452,31.3053333 L158.606452,31.9026667 L157.091935,31.9026667" id="Fill-18" fill="#FFFFFF" mask="url(#mask-4)"></path>
            <polyline id="Fill-20" fill="#FFFFFF" mask="url(#mask-4)" points="161 29 166 29 166 29.5989724 163.890281 29.5989724 163.890281 35 163.130037 35 163.130037 29.5989724 161 29.5989724 161 29"></polyline>
            <g id="Group-26" mask="url(#mask-4)">
                <g transform="translate(166.000000, 30.000000)">
                    <mask id="mask-6" fill="white">
                        <use xlink:href="#path-5"></use>
                    </mask>
                    <g id="Clip-22" stroke="none" fill="none"></g>
                    <path d="M0.0736,1.473 L0.7728,1.473 L0.7728,2.076 C0.7728,2.076 1.5952,1.545 2.5008,1.3755 L2.5008,2.049 C1.6128,2.217 0.7824,2.652 0.7824,2.652 L0.7824,5.9025 L0.0736,5.9025 L0.0736,1.473" id="Fill-21" stroke="none" fill="#FFFFFF" fill-rule="evenodd" mask="url(#mask-6)"></path>
                    <path d="M7.184,1.473 L7.184,5.9025 L6.4752,5.9025 L6.4752,5.592 C6.4752,5.592 5.7664,5.991 5.0768,5.991 C3.7552,5.991 3.48,5.415 3.48,3.786 L3.48,1.473 L4.1888,1.473 L4.1888,3.7755 C4.1888,4.998 4.3024,5.397 5.1808,5.397 C5.88,5.397 6.4752,5.07 6.4752,5.07 L6.4752,1.473 L7.184,1.473" id="Fill-23" stroke="none" fill="#FFFFFF" fill-rule="evenodd" mask="url(#mask-6)"></path>
                    <path d="M11.8672,2.1195 C11.8672,2.1195 10.8176,1.9785 10.2128,1.9785 C9.6272,1.9785 9.1824,2.1285 9.1824,2.652 C9.1824,3.0675 9.4096,3.183 10.4112,3.342 C11.592,3.528 12.0368,3.75 12.0368,4.6095 C12.0368,5.646 11.3376,5.991 10.2032,5.991 C9.5984,5.991 8.5408,5.823 8.5408,5.823 L8.5776,5.247 C8.5776,5.247 9.656,5.397 10.1376,5.397 C10.912,5.397 11.328,5.238 11.328,4.6365 C11.328,4.1745 11.0816,4.0605 10.0528,3.909 C8.984,3.75 8.4736,3.564 8.4736,2.6775 C8.4736,1.704 9.3152,1.3845 10.1744,1.3845 C10.8832,1.3845 11.8848,1.5525 11.8848,1.5525 L11.8672,2.1195" id="Fill-24" stroke="none" fill="#FFFFFF" fill-rule="evenodd" mask="url(#mask-6)"></path>
                    <path d="M14.2528,2.049 L14.2528,4.167 C14.2528,5.1315 14.3184,5.406 14.9328,5.406 C15.1984,5.406 15.7728,5.3535 15.7728,5.3535 L15.8208,5.9025 C15.8208,5.9025 15.1872,6 14.8576,6 C13.8832,6 13.5536,5.6535 13.5536,4.3785 L13.5536,2.049 L12.8832,2.049 L12.8832,1.473 L13.5536,1.473 L13.5536,0.1185 L14.2528,0.1185 L14.2528,1.473 L15.7552,1.473 L15.7552,2.049 L14.2528,2.049" id="Fill-25" stroke="none" fill="#FFFFFF" fill-rule="evenodd" mask="url(#mask-6)"></path>
                </g>
            </g>
        </g>
    </g>
</svg>