<?xml version="1.0" encoding="UTF-8"?>
<svg width="237px" height="42px" viewBox="0 0 237 42" version="1.1" xmlns="http://www.w3.org/2000/svg" xmlns:xlink="http://www.w3.org/1999/xlink">
    <!-- Generator: Sketch 60.1 (88133) - https://sketch.com -->
    <title>Logoblue@3x</title>
    <desc>Created with Sketch.</desc>
    <g id="Page-1" stroke="none" stroke-width="1" fill="none" fill-rule="evenodd">
        <g id="Startseite---Voicebirds" transform="translate(-151.000000, -48.000000)">
            <g id="Logoblue" transform="translate(143.000000, 48.000000)">
                <g id="Group-3">
                    <text id="birds" fill="#FFFFFF" font-family="Oxygen-Bold, Oxygen" font-size="36" font-weight="bold" line-spacing="40" letter-spacing="-1.2">
                        <tspan x="0" y="39">           </tspan>
                        <tspan x="94.4132812" y="39.0878906" font-family="Oxygen-Light, Oxygen" font-weight="300">birds</tspan>
                    </text>
                    <text id="voice" fill="#3B86B9" font-family="Oxygen-Bold, Oxygen" font-size="36" font-weight="bold" line-spacing="40" letter-spacing="-1.2">
                        <tspan x="8" y="39">voice</tspan>
                    </text>
                    <g id="Group-2" transform="translate(174.000000, 0.000000)">
                        <g id="Group-2-Copy">
                            <polygon id="Path-8" fill="#FFFFFF" points="0 6.72515635 19.712344 3.25406255 40.0146484 10.8037109 49.1915632 0 70.6 17.2 57.385498 14.4318848 36.9480474 41.6 5.76000009 28.8000004 23.4178128 29.7351567 15.1896095 11.3685939"></polygon>
                            <polygon id="Path-2" fill="#FFFFFF" points="49.1915632 0 70.4938354 17.180481 40.0146484 10.8037109"></polygon>
                            <path d="M55.2557829,15.2333875 L41.094113,12.2755011 L38.5940516,37.3799699 L55.2557829,15.2333875 Z" id="Path-3" stroke="#ECECEC" stroke-width="2.44" fill="#ECECEC"></path>
                            <polygon id="Path-4" fill="#FFFFFF" points="40.0146484 10.8037109 36.9480474 41.59711 23.4178128 29.7351567"></polygon>
                            <polygon id="Path-5" fill="#F7F7F7" points="40.0146484 10.8037109 19.712344 3.25406255 15.0557815 11.3685939 23.4178128 29.7351567"></polygon>
                            <polygon id="Path-6" fill="#FFFFFF" points="15.0557815 11.3685939 0 6.72515635 19.712344 3.25406255"></polygon>
                            <polygon id="Path-7" fill="#F8F8F8" points="23.703275 29.8828129 5.76000009 28.8000004 36.9480474 41.59711"></polygon>
                        </g>
                    </g>
                </g>
            </g>
        </g>
    </g>
</svg>