<svg xmlns="http://www.w3.org/2000/svg" width="953" height="585" viewBox="0 0 953 585">
    <defs>
        <linearGradient id="prefix__a" x1="50%" x2="50%" y1="0%" y2="38.158%">
            <stop offset="0%" stop-color="#FFF"/>
            <stop offset="100%" stop-color="#BCF4FF" stop-opacity=".8"/>
        </linearGradient>
        <linearGradient id="prefix__b" x1="50%" x2="50%" y1="-10.046%" y2="59.269%">
            <stop offset=".005%" stop-color="#FD91C7" stop-opacity=".9"/>
            <stop offset="100%" stop-color="#FB5895" stop-opacity=".9"/>
        </linearGradient>
    </defs>
    <g fill="none" fill-rule="evenodd">
        <path fill="url(#prefix__a)" d="M553.49 36.086c84.993-43.157 373.837 78.805 391.61 112.41 8.961 16.943 15.342 64.88-4.621 114.084-23.824 58.719-77.158 89.899-123.743 93.537-85.622 6.686-286.784-27.206-349.007-85.096-62.224-57.89.77-191.778 85.762-234.935z" transform="translate(-.646 -.953) rotate(180 698.146 191.953)"/>
        <path fill="url(#prefix__b)" d="M197.173 17.144c150.691-76.507 662.809 139.7 694.321 199.271 15.888 30.036 27.2 115.016-8.194 202.241-42.238 104.092-136.8 159.366-219.395 165.815C512.098 596.324 155.44 536.242 45.118 433.62-65.204 330.997 46.483 93.65 197.173 17.144z" transform="translate(-.646 -.953) rotate(180 453.646 293.453)"/>
    </g>
</svg>
